<?xml version="1.0" encoding="UTF-8" standalone="no"?>
<!-- Uploaded to: SVG Repo, www.svgrepo.com, Generator: SVG Repo Mixer Tools -->

<svg
   version="1.1"
   id="designs"
   width="700.01227"
   height="537.625"
   viewBox="0 0 28.000491 21.505"
   xml:space="preserve"
   sodipodi:docname="read-svgrepo-com.svg"
   xmlns:inkscape="http://www.inkscape.org/namespaces/inkscape"
   xmlns:sodipodi="http://sodipodi.sourceforge.net/DTD/sodipodi-0.dtd"
   xmlns:xlink="http://www.w3.org/1999/xlink"
   xmlns="http://www.w3.org/2000/svg"
   xmlns:svg="http://www.w3.org/2000/svg"><defs
   id="defs1"><linearGradient
     id="linearGradient1"
     inkscape:collect="always"><stop
       style="stop-color:#ff6b1a;stop-opacity:1;"
       offset="0"
       id="stop1" /><stop
       style="stop-color:#b33f00;stop-opacity:0.49803922;"
       offset="0.5"
       id="stop3" /><stop
       style="stop-color:#00b3ad;stop-opacity:0.85060239;"
       offset="1"
       id="stop2" /></linearGradient><linearGradient
     inkscape:collect="always"
     xlink:href="#linearGradient1"
     id="linearGradient2"
     x1="1.9996248"
     y1="15.9995"
     x2="30.000114"
     y2="15.9995"
     gradientUnits="userSpaceOnUse"
     gradientTransform="translate(-1.9996248,-5.2470002)" /></defs><sodipodi:namedview
   id="namedview1"
   pagecolor="#ffffff"
   bordercolor="#000000"
   borderopacity="0.25"
   inkscape:showpageshadow="2"
   inkscape:pageopacity="0.0"
   inkscape:pagecheckerboard="0"
   inkscape:deskcolor="#d1d1d1" />&#10;<style
   type="text/css"
   id="style1">&#10;	.sketchy_een{fill:#111918;}&#10;</style>&#10;<path
   class="sketchy_een"
   d="m 27.975375,18.75 c 0,-0.204 -0.004,-0.408 -0.002,-0.611 0.004,-0.419 0.029,-0.838 0.027,-1.256 -0.002,-0.891 -0.021,-1.78 -0.041,-2.669 -0.014,-0.615 0.008,-1.228 -0.01,-1.844 -0.008,-0.33 -0.027,-0.66 -0.037,-0.99 -0.008,-0.301 -0.002,-0.604 -0.004,-0.906 -0.006,-1.3590002 -0.115,-2.7130002 -0.116,-4.0720002 0,-0.604 0,-1.209 -0.004,-1.813 -0.004,-0.631 0.039,-1.265 0.078,-1.894 0.027,-0.431 -0.38,-0.792 -0.794,-0.792 -0.028,0 -0.05,0.013 -0.077,0.016 -0.122,-0.074 -0.256,-0.129 -0.407,-0.133 -0.014,0 -0.027,-10e-4 -0.041,-10e-4 -0.173,0 -0.346,0.032 -0.52,0.034 -0.185,0.002 -0.37,0.004 -0.555,0.006 -0.001,-0.168 0.002,-0.335 -0.002,-0.503 -0.01,-0.38000002 -0.282,-0.69100002 -0.645,-0.76500002 -0.014,-0.036 -0.017,-0.075 -0.037,-0.108 -0.085,-0.146 -0.264,-0.314 -0.443,-0.34 -0.601,-0.081 -1.205,-0.10899999743774 -1.81,-0.10899999743774 -0.693,0 -1.387,0.0359999974377 -2.079,0.0679999974377 -0.677,0.031 -1.357,0.07 -2.034,0.111 -0.629,0.037 -1.252,0.08 -1.867,0.213 -0.256,0.056 -0.518,0.109 -0.769,0.192 -0.32,0.109 -0.629,0.241 -0.932,0.388 -0.344,0.16800002 -0.639,0.42400002 -0.917,0.69400002 -0.185,-0.159 -0.379,-0.311 -0.584,-0.446 -0.384,-0.24800002 -0.817,-0.42100002 -1.254,-0.55100002 -0.637,-0.186 -1.304,-0.26 -1.966,-0.291 -0.6679998,-0.033 -1.3329998,-0.087 -2.0029998,-0.099 -0.753,-0.013 -1.506,-0.015 -2.261,-0.021 -0.672,-0.006 -1.343,-0.027 -2.015,-0.027 -0.152,0 -0.304,0.001 -0.457,0.004 -0.344,0.006 -0.63,0.238 -0.728,0.553 -0.171,0.144 -0.287,0.34800002 -0.277,0.58000002 0.006,0.127 0.006,0.253 0.012,0.38 -0.032,0 -0.062,-0.013 -0.095,-0.011 0.016,-0.002 0.033,-0.005 0.05,-0.007 -0.163,0.016 -0.332,-0.001 -0.497,-0.001 -0.131,-0.002 -0.262,-0.003 -0.393,-0.003 -0.131,0 -0.262,10e-4 -0.393,0.003 -0.34500005,0.003 -0.64300005,0.219 -0.76600005,0.524 -0.176,0.144 -0.297,0.352 -0.296,0.592 0.006,0.78 0.023,1.56 0.016,2.341 -0.006,0.693 -0.012,1.386 -0.019,2.079 -0.009,0.797 -0.009,1.596 -0.0109999984,2.396 C -0.00362485,10.435 0.02537515,11.21 0.03937515,11.984 c 0.01,0.658 0.012,1.314 0.023,1.972 0.012,0.67 0.049,1.337 0.062,2.005 0.021,1.081 0.01,2.164 0.021,3.247 0.003,0.39 0.293,0.708 0.667,0.777 0.042,0.019 0.09,0.018 0.136,0.028 0.001,0 0.001,0 0.002,0 v 0 c 0.058,0.013 0.11400005,0.035 0.17600005,0.031 0.371,-0.023 0.737,-0.06 1.108,-0.089 0.398,-0.029 0.796,-0.043 1.195,-0.05 0.489,-0.01 0.98,-0.008 1.469,-0.006 0.26,0.002 0.52,0.004 0.78,0.002 1.432,-0.008 2.866,-0.021 4.301,0.029 0.1549998,0.005 0.3119998,0.007 0.4689998,0.011 0.02,0.235 0.065,0.464 0.107,0.694 0.027,0.149 0.056,0.25 0.124,0.398 0.148,0.324 0.522,0.472 0.856,0.472 0.186,0 0.373,-0.002 0.557,-0.006 1.128,-0.019 2.251,-0.033 3.379,-0.025 0.245,0 0.489,-0.002 0.734,-0.002 0.124,0.002 0.25,0.002 0.375,0.008 0.049,0.002 0.097,0.006 0.146,0.01 0.19,0.01 0.361,-0.045 0.532,-0.124 0.452,-0.21 0.54,-0.724 0.582,-1.163 0.007,-0.081 0.012,-0.163 0.017,-0.244 0.473,-0.04 0.95,-0.05 1.425,-0.062 0.712,-0.017 1.426,-0.021 2.139,-0.027 1.432,-0.012 2.863,0.019 4.295,0.025 0.066,0.002 0.134,0.002 0.202,0.002 0.252,0 0.506,0.005 0.758,0.022 0.04,0.036 0.074,0.079 0.121,0.107 0.179,0.105 0.396,0.132 0.596,0.078 0.278,-0.076 0.441,-0.279 0.538,-0.54 0.058,-0.153 0.048,-0.33 0.045,-0.495 -0.003,-0.107 -0.001,-0.212 -0.001,-0.319 z M 7.3603752,1.7059998 c 0.299,0.002 0.6,0.008 0.899,0.017 0.272,0.01 0.543,0.045 0.815,0.07 0.301,0.029 0.602,0.047 0.902,0.058 0.2579998,0.008 0.5149998,0.011 0.7719998,0.036 0.479,0.074 0.951,0.185 1.402,0.363 0.191,0.086 0.371,0.194 0.541,0.318 0.142,0.116 0.279,0.234 0.398,0.373 0.015,0.021 0.031,0.042 0.046,0.063 0.031,0.043 0.068,0.075 0.101,0.112 0.01,0.282 0.021,0.563 0.029,0.845 0.01,0.39 0.033,0.784 0.021,1.172 -0.01,0.367 -0.035,0.734 -0.062,1.098 -0.027,0.355 -0.027,0.708 -0.029,1.064 -0.008,0.722 -0.012,1.444 -0.006,2.168 0.008,0.7390002 0.031,1.4770002 0.041,2.2160002 0.002,0.233 -0.017,0.464 -0.016,0.697 0.002,0.384 0.012,0.767 0.014,1.151 0.002,0.542 -0.025,1.079 0.008,1.621 0.025,0.388 0.309,0.716 0.716,0.716 0.19,0 0.373,-0.078 0.507,-0.21 0.12,-0.12 0.235,-0.332 0.21,-0.507 -0.025,-0.196 -0.016,-0.396 -0.021,-0.594 -0.006,-0.303 -0.012,-0.606 -0.004,-0.91 0.016,-0.576 0.039,-1.155 0.008,-1.731 -0.039,-0.72 -0.045,-1.446 -0.037,-2.1660002 0.006,-0.734 0.035,-1.469 0.025,-2.203 -0.01,-0.759 0.052,-1.52 0.103,-2.278 0.049,-0.753 0.049,-1.511 0.039,-2.267 0.185,-0.198 0.37,-0.399 0.574,-0.573 0.183,-0.125 0.377,-0.222 0.579,-0.318 0.418,-0.162 0.855,-0.274 1.298,-0.343 0.51,-0.065 1.02,-0.111 1.536,-0.13 0.607,-0.021 1.215,-0.097 1.822,-0.132 1.099,-0.064 2.2,-0.086 3.295,0.03 0.032,0.676 0.083,1.355 0.069,2.03 -0.012,0.66 -0.002,1.316 0.033,1.974 0.039,0.728 0.052,1.456 0.07,2.181 0.017,0.741 0.039,1.483 0.045,2.224 0.004,0.6640002 -0.002,1.3290002 0.006,1.9930002 0.006,0.532 0.047,1.062 0.06,1.593 0.01,0.417 0.008,0.836 -0.012,1.254 -0.013,0.319 0.008,0.644 -0.01,0.964 -0.173,-10e-4 -0.346,-0.007 -0.52,-0.01 -0.309,-0.004 -0.619,-0.016 -0.928,-0.023 -0.307,-0.008 -0.611,-0.008 -0.916,-0.021 -0.365,-0.016 -0.728,-0.045 -1.093,-0.058 -0.5,-0.019 -1.001,-0.034 -1.503,-0.034 -0.228,0 -0.456,0.003 -0.685,0.01 -0.349,0.012 -0.703,0.018 -1.05,0.06 -0.373,0.045 -0.741,0.103 -1.108,0.18 -0.476,0.097 -0.945,0.256 -1.403,0.413 -0.163,0.054 -0.328,0.113 -0.479,0.196 -0.103,0.058 -0.196,0.128 -0.291,0.198 -0.09,0.065 -0.169,0.145 -0.256,0.214 -0.112,-0.084 -0.226,-0.165 -0.335,-0.248 -0.161,-0.124 -0.33,-0.227 -0.512,-0.316 -0.215,-0.107 -0.442,-0.19 -0.671,-0.268 -0.303,-0.105 -0.611,-0.151 -0.93,-0.192 -0.437,-0.058 -0.876,-0.078 -1.316,-0.078 -0.7619998,0 -1.5269998,0.06 -2.2859998,0.086 -0.736,0.025 -1.471,0.043 -2.207,0.076 -0.373,0.017 -0.743,0.043 -1.116,0.052 -0.134,0.004 -0.269,0.006 -0.404,0.008 0.06,-0.109 0.103,-0.226 0.089,-0.337 -0.035,-0.268 -0.027,-0.547 -0.031,-0.815 -0.004,-0.237 -0.006,-0.475 -0.014,-0.712 -0.021,-0.666 -0.058,-1.331 -0.089,-1.997 -0.035,-0.741 -0.047,-1.485 -0.068,-2.2260002 -0.021,-0.736 -0.066,-1.471 -0.093,-2.207 -0.039,-1.073 -0.023,-2.146 0,-3.22 0.012,-0.483 0,-0.968 0.006,-1.452 0.006,-0.418 0.01,-0.839 0.009,-1.261 1.138,-0.038 2.275,-0.069 3.413,-0.057 z M 25.169375,18.426 c -0.633,0 -1.263,-0.002 -1.894,0 -1.401,0.004 -2.804,0.006 -4.208,-0.008 -0.276,-0.004 -0.549,0.002 -0.825,0.004 -0.078,0.002 -0.153,0 -0.231,0 -0.32,-0.004 -0.65,-0.006 -0.955,0.068 -0.165,0.041 -0.34,0.144 -0.454,0.268 -0.177,0.194 -0.246,0.408 -0.268,0.664 -0.01,0.101 -0.016,0.204 -0.016,0.305 -0.001,0.086 -0.001,0.172 -0.003,0.257 -0.037,10e-4 -0.073,0.002 -0.11,0.003 -0.182,0.006 -0.363,0.017 -0.543,0.019 -0.423,0.006 -0.844,0.004 -1.265,0.004 -0.454,0 -0.908,-0.002 -1.362,-0.014 -0.322,-0.009 -0.646,-0.005 -0.968,-0.025 -0.012,-0.05 -0.022,-0.1 -0.032,-0.15 -0.02,-0.205 -0.031,-0.41 -0.06,-0.615 -0.035,-0.268 -0.215,-0.514 -0.441,-0.656 -0.206,-0.132 -0.444,-0.148 -0.681,-0.146 -0.536,0.002 -1.0689998,-0.017 -1.6049998,-0.021 -0.377,0 -0.753,0 -1.13,0 -0.377,0.002 -0.751,0.002 -1.128,0 -0.603,-10e-4 -1.205,-0.008 -1.807,-0.008 -0.175,0 -0.351,0.001 -0.526,0.002 -0.982,0.01 -1.963,0.022 -2.944,0.057 -10e-4,-0.035 -0.002,-0.07 -0.003,-0.104 -0.01,-0.357 -0.008,-0.714 -0.008,-1.071 0,-0.704 -0.021,-1.409 -0.041,-2.113 -0.021,-0.802 -0.019,-1.601 -0.016,-2.403 0.006,-0.759 -0.033,-1.518 -0.045,-2.275 -0.023,-1.3200002 -0.008,-2.6410002 -0.01,-3.9610002 -0.002,-0.549 -0.012,-1.098 -0.025,-1.646 -0.012,-0.498 -0.004,-0.995 0,-1.492 0.098,-0.004 0.196,-0.006 0.294,-0.01 0.165,-0.008 0.332,-0.031 0.497,-0.019 -0.011,-0.002 -0.024,-0.004 -0.038,-0.006 0.046,0.003 0.09,-0.004 0.135,-0.007 10e-4,0.084 0.007,0.169 0.008,0.254 0.004,0.72 -0.023,1.442 -0.027,2.162 -0.004,0.737 0.006,1.475 0.033,2.212 0.027,0.747 0.064,1.494 0.089,2.2420002 0.035,1.031 0.066,2.059 0.109,3.09 0.016,0.396 0.049,0.792 0.05,1.19 0.002,0.219 0.019,0.437 0.023,0.656 0.002,0.175 -0.004,0.349 0.004,0.524 0.008,0.17 0.076,0.322 0.172,0.448 -0.26,0.128 -0.445,0.379 -0.445,0.693 0,0.409 0.357,0.809 0.786,0.784 0.741,-0.041 1.483,-0.109 2.226,-0.147 0.708,-0.037 1.417,-0.058 2.127,-0.07 0.607,-0.01 1.211,-0.066 1.817,-0.081 0.279,-0.008 0.557,-0.008 0.8359998,0 0.306,0.008 0.61,0.01 0.915,0.047 0.046,0.006 0.093,0.013 0.139,0.019 0.287,0.044 0.555,0.129 0.823,0.233 0.177,0.084 0.345,0.188 0.5,0.306 -0.054,-0.041 -0.107,-0.081 -0.161,-0.124 0.184,0.142 0.386,0.285 0.545,0.454 0.094,0.099 0.214,0.155 0.339,0.191 0.008,0.009 0.011,0.022 0.02,0.031 0.305,0.305 0.813,0.305 1.118,0 0.229,-0.229 0.468,-0.452 0.716,-0.659 0.03,-0.02 0.061,-0.039 0.093,-0.056 0.646,-0.245 1.309,-0.435 1.993,-0.541 0.268,-0.033 0.538,-0.054 0.809,-0.071 0.342,-0.021 0.683,-0.05 1.025,-0.054 0.685,-0.008 1.37,-0.012 2.053,0.043 0.332,0.027 0.666,0.037 0.998,0.054 0.291,0.014 0.576,0.027 0.866,0.023 0.206,-0.004 0.413,0 0.621,0.004 0.363,0.008 0.724,0.014 1.085,-0.023 0.202,-0.021 0.371,-0.066 0.518,-0.215 0.134,-0.132 0.208,-0.314 0.212,-0.503 0.085,-0.09 0.156,-0.192 0.189,-0.318 0.062,-0.239 0.029,-0.51 0.029,-0.755 0,-0.204 0.006,-0.406 0.01,-0.607 0.012,-0.45 -0.004,-0.9 -0.027,-1.351 -0.031,-0.594 -0.082,-1.184 -0.095,-1.778 -0.016,-0.706 0.004,-1.413 0,-2.1190002 -0.006,-0.697 -0.017,-1.395 -0.031,-2.092 -0.012,-0.685 -0.01,-1.368 -0.043,-2.053 -0.029,-0.619 -0.045,-1.238 -0.048,-1.857 0,-0.028 0,-0.055 0,-0.083 0.266,-0.012 0.533,-0.021 0.799,-0.029 -0.002,0.5 0.005,1 -10e-4,1.501 -0.008,0.763 -0.019,1.525 -0.008,2.286 0.008,0.681 0.043,1.359 0.074,2.038 0.029,0.642 0.019,1.2890002 0.052,1.9310002 0.033,0.664 0.066,1.328 0.07,1.991 0.004,0.501 -0.008,1.003 0.004,1.506 0.021,0.895 0.05,1.795 0.029,2.69 -0.008,0.324 -0.027,0.648 -0.031,0.972 0,0.037 -10e-4,0.076 -10e-4,0.114 -0.43,-0.004 -0.86,-0.003 -1.29,-0.004 z m -7.487,-11.9730002 c -0.146,-0.146 -0.227,-0.344 -0.227,-0.549 0,-0.204 0.081,-0.404 0.227,-0.547 0.155,-0.155 0.334,-0.208 0.547,-0.227 0.398,-0.039 0.796,-0.068 1.195,-0.085 0.326,-0.014 0.652,-0.019 0.978,-0.043 0.219,-0.014 0.439,-0.023 0.658,-0.039 0.16,-0.011 0.317,-0.027 0.477,-0.027 0.009,0 0.017,0 0.026,0 0.411,0.008 0.755,0.338 0.755,0.755 0,0.2 -0.08,0.394 -0.219,0.534 -0.151,0.151 -0.33,0.206 -0.536,0.221 -0.175,0.014 -0.351,0.029 -0.528,0.031 -0.097,0.002 -0.192,0.002 -0.287,0 -0.132,-0.002 -0.264,-0.002 -0.394,0.002 -0.334,0.012 -0.666,0.052 -1,0.083 -0.375,0.037 -0.751,0.078 -1.126,0.118 -0.193,0.02 -0.415,-0.095 -0.546,-0.227 z m 4.815,1.66 c 0,0.408 -0.357,0.809 -0.784,0.784 -0.505,-0.031 -1.019,-0.021 -1.525,-0.006 -0.627,0.021 -1.254,0.068 -1.881,0.105 -0.443,0.027 -0.813,-0.39 -0.813,-0.813 0,-0.458 0.371,-0.792 0.813,-0.811 0.627,-0.031 1.254,-0.037 1.881,-0.031 0.507,0.004 1.021,0.019 1.525,-0.014 0.014,-0.001 0.027,-0.001 0.041,-0.001 0.409,0 0.743,0.392 0.743,0.787 z m -0.073,2.4960002 c 0,0.425 -0.361,0.8 -0.794,0.792 -0.184,-0.004 -0.367,-0.021 -0.551,-0.031 -0.264,-0.016 -0.532,-0.008 -0.796,-0.006 -0.559,0.006 -1.116,0.041 -1.675,0.066 -0.433,0.019 -0.796,-0.376 -0.796,-0.796 0,-0.443 0.363,-0.7820002 0.796,-0.7960002 0.559,-0.016 1.116,0.012 1.675,0.014 0.264,0.002 0.532,0.01 0.796,-0.006 0.184,-0.01 0.367,-0.027 0.551,-0.031 0.004,0 0.009,0 0.013,0 0.427,10e-4 0.781,0.3720002 0.781,0.7940002 z M 5.4713752,5.5579998 c 0,-0.437 0.363,-0.796 0.796,-0.798 0.053,0 0.105,0 0.158,0 0.795,0 1.591,0.026 2.384,0.031 0.239,0.002 0.477,-0.004 0.714,-0.021 0.268,-0.019 0.5179998,0.039 0.7799998,0.083 0.186,0.033 0.365,0.194 0.456,0.349 0.103,0.177 0.13,0.39 0.076,0.586 -0.083,0.303 -0.402,0.592 -0.734,0.559 -0.2019998,-0.019 -0.4059998,-0.047 -0.6069998,-0.054 -0.239,-0.008 -0.479,-0.004 -0.718,0 -0.836,0.012 -1.673,0.043 -2.509,0.06 -0.433,0.01 -0.796,-0.368 -0.796,-0.795 z m 5.4989998,2.631 c 0,0.398 -0.357,0.817 -0.78,0.78 -0.2459998,-0.021 -0.4929998,-0.004 -0.7369998,-0.025 -0.291,-0.023 -0.584,-0.025 -0.875,-0.029 -0.765,-0.014 -1.535,0.056 -2.298,0.113 -0.431,0.033 -0.794,-0.386 -0.794,-0.794 0,-0.452 0.363,-0.769 0.794,-0.794 0.767,-0.045 1.531,-0.039 2.298,-0.037 0.301,0 0.602,-0.012 0.902,-0.023 0.035,-0.001 0.069,-0.002 0.104,-0.002 0.202,0 0.404,0.017 0.6059998,0.031 0.423,0.025 0.78,0.334 0.78,0.78 z m -0.781,1.9920002 c -0.128,-0.035 -0.2569998,-0.038 -0.3849998,-0.011 -0.432,0.038 -0.868,0.005 -1.299,-0.012 -0.635,-0.023 -1.267,-0.043 -1.9,-0.052 -0.005,0 -0.011,0 -0.016,0 -0.454,0 -0.828,0.396 -0.828,0.844 0,0.46 0.384,0.844 0.844,0.844 0.633,0.002 1.265,-0.01 1.9,-0.029 0.491,-0.014 0.978,-0.039 1.469,0.006 0.2039998,0.019 0.4329998,-0.097 0.5729998,-0.237 0.151,-0.151 0.239,-0.359 0.239,-0.573 0,-0.214 -0.087,-0.421 -0.239,-0.573 -0.102,-0.1 -0.22,-0.17 -0.358,-0.207 z m -0.4309998,0 c -0.016,0.002 -0.031,0.004 -0.047,0.006 0.017,-0.002 0.034,-0.005 0.051,-0.007 -10e-4,10e-4 -0.003,10e-4 -0.004,10e-4 z"
   id="path1"
   style="fill:url(#linearGradient2)" />&#10;</svg>
