<?xml version="1.0" encoding="UTF-8" standalone="no"?>
<!-- Created with Inkscape (http://www.inkscape.org/) -->

<svg
   width="40.888744mm"
   height="27.292616mm"
   viewBox="0 0 40.888744 27.292616"
   version="1.1"
   id="svg1"
   xml:space="preserve"
   xmlns:inkscape="http://www.inkscape.org/namespaces/inkscape"
   xmlns:sodipodi="http://sodipodi.sourceforge.net/DTD/sodipodi-0.dtd"
   xmlns:xlink="http://www.w3.org/1999/xlink"
   xmlns="http://www.w3.org/2000/svg"
   xmlns:svg="http://www.w3.org/2000/svg"><sodipodi:namedview
     id="namedview1"
     pagecolor="#ffffff"
     bordercolor="#000000"
     borderopacity="0.25"
     inkscape:showpageshadow="2"
     inkscape:pageopacity="0.0"
     inkscape:pagecheckerboard="0"
     inkscape:deskcolor="#d1d1d1"
     inkscape:document-units="mm" /><defs
     id="defs1"><linearGradient
       id="linearGradient5"
       inkscape:collect="always"><stop
         style="stop-color:#6c7aff;stop-opacity:1;"
         offset="0"
         id="stop5" /><stop
         style="stop-color:#068e98;stop-opacity:1;"
         offset="0.5"
         id="stop7" /><stop
         style="stop-color:#ff9730;stop-opacity:0.96884733;"
         offset="1"
         id="stop6" /></linearGradient><linearGradient
       id="linearGradient3"
       inkscape:collect="always"><stop
         style="stop-color:#d4d28f;stop-opacity:1;"
         offset="0"
         id="stop3" /><stop
         style="stop-color:#ab70f6;stop-opacity:1;"
         offset="1"
         id="stop4" /></linearGradient><linearGradient
       inkscape:collect="always"
       xlink:href="#linearGradient3"
       id="linearGradient4"
       x1="130.35207"
       y1="433.86057"
       x2="255.92291"
       y2="433.86057"
       gradientUnits="userSpaceOnUse" /><linearGradient
       inkscape:collect="always"
       xlink:href="#linearGradient5"
       id="linearGradient6"
       x1="28.00182"
       y1="117.41761"
       x2="74.032608"
       y2="117.41761"
       gradientUnits="userSpaceOnUse" /></defs><g
     inkscape:label="Layer 1"
     inkscape:groupmode="layer"
     id="layer1"
     transform="translate(-30.59961,-105.27938)"><path
       class="sketchy_een"
       d="m 73.99075,130.56462 c 0,-0.33537 -0.0068,-0.67074 -0.0027,-1.00445 0.0068,-0.68881 0.04763,-1.37761 0.04437,-2.06478 -0.0027,-1.46474 -0.03447,-2.92621 -0.06744,-4.38766 -0.02307,-1.01102 0.01357,-2.01875 -0.01642,-3.03141 -0.01357,-0.5425 -0.04437,-1.085 -0.06079,-1.62749 -0.01357,-0.49483 -0.0027,-0.99294 -0.0068,-1.48941 -0.0095,-2.2341 -0.189056,-4.45998 -0.190698,-6.6941 0,-0.99294 0,-1.98752 -0.0068,-2.98045 -0.0068,-1.03732 0.06405,-2.07957 0.128236,-3.11361 0.04437,-0.70854 -0.624703,-1.30199 -1.305287,-1.30199 -0.046,0 -0.08223,0.0213 -0.126607,0.0263 -0.200563,-0.12158 -0.420843,-0.21207 -0.669077,-0.21863 -0.02307,0 -0.04437,-0.001 -0.06744,-0.001 -0.284412,0 -0.568809,0.0526 -0.854849,0.0559 -0.304128,0.003 -0.608256,0.007 -0.912385,0.009 -0.0014,-0.27619 0.0027,-0.55072 -0.0027,-0.82691 -0.01642,-0.62469 -0.463588,-1.13595 -1.060337,-1.2576 -0.02307,-0.0592 -0.02795,-0.12336 -0.06079,-0.17756 -0.139743,-0.24001 -0.434005,-0.516194 -0.728268,-0.558939 -0.987997,-0.133121 -1.980932,-0.179177 -2.97551,-0.179177 -1.139246,0 -2.280147,0.05916 -3.417738,0.111816 -1.112947,0.05102 -2.230821,0.115072 -3.343768,0.18247 -1.034026,0.0608 -2.058199,0.1315 -3.069223,0.35016 -0.420843,0.092 -0.851551,0.17919 -1.264184,0.31564 -0.526064,0.17919 -1.034025,0.39619 -1.532149,0.63784 -0.565511,0.27619 -1.050472,0.69703 -1.507478,1.14089 -0.304128,-0.26139 -0.623048,-0.51126 -0.960056,-0.7332 -0.631271,-0.40769 -1.343093,-0.69209 -2.061496,-0.9058 -1.047188,-0.30577 -2.143689,-0.42743 -3.23198,-0.47838 -1.098143,-0.0543 -2.19136,-0.14303 -3.292787,-0.16276 -1.237885,-0.0213 -2.475771,-0.0247 -3.71694,-0.0345 -1.104724,-0.01 -2.207807,-0.0444 -3.312531,-0.0444 -0.249876,0 -0.499752,0.001 -0.75127,0.007 -0.565511,0.01 -1.03568,0.39126 -1.196782,0.90911 -0.281114,0.23672 -0.471811,0.57209 -0.455378,0.95347 0.0095,0.20879 0.0095,0.41592 0.01968,0.6247 -0.05265,0 -0.10191,-0.0213 -0.156176,-0.018 0.02633,-0.003 0.05428,-0.008 0.08223,-0.0109 -0.267965,0.0263 -0.545794,-10e-4 -0.817043,-10e-4 -0.215354,-0.003 -0.430708,-0.005 -0.646062,-0.005 -0.215354,0 -0.430708,0.001 -0.646062,0.005 -0.567167,0.005 -1.057053,0.36003 -1.259258,0.86142 -0.289337,0.23673 -0.488245,0.57866 -0.486603,0.97321 0.0095,1.28227 0.03786,2.56454 0.02633,3.84845 -0.0095,1.13925 -0.01968,2.2785 -0.03121,3.41774 -0.01479,1.31022 -0.01479,2.62373 -0.01805,3.93887 -0.0068,1.2724 0.04112,2.54645 0.06405,3.81886 0.01642,1.08171 0.01968,2.16012 0.03786,3.24183 0.01968,1.10144 0.08061,2.19794 0.10191,3.29609 0.03447,1.77709 0.01642,3.55746 0.03447,5.33785 0.0054,0.64113 0.481677,1.1639 1.096501,1.27734 0.06907,0.0312 0.147953,0.0296 0.223578,0.046 0.0014,0 0.0014,0 0.0027,0 v 0 c 0.0954,0.0213 0.187413,0.0575 0.289337,0.0509 0.609898,-0.0379 1.211573,-0.0986 1.821472,-0.14631 0.654285,-0.0476 1.308571,-0.0707 1.964498,-0.0822 0.803894,-0.0164 1.611058,-0.0136 2.414951,-0.01 0.427411,0.003 0.854835,0.007 1.282259,0.003 2.354117,-0.0136 4.711518,-0.0345 7.070561,0.0476 0.254802,0.008 0.512901,0.0109 0.771,0.018 0.03284,0.38632 0.106931,0.76279 0.175907,1.14089 0.04437,0.24495 0.092,0.41099 0.203846,0.65428 0.243295,0.53264 0.858133,0.77594 1.407211,0.77594 0.30577,0 0.613182,-0.003 0.915669,-0.01 1.854351,-0.0312 3.700493,-0.0543 5.554845,-0.0411 0.402768,0 0.803894,-0.003 1.206648,-0.003 0.203847,0.003 0.410991,0.003 0.61648,0.0136 0.0806,0.003 0.15946,0.01 0.24001,0.0164 0.312352,0.0164 0.593466,-0.0739 0.874579,-0.20384 0.74306,-0.34524 0.887715,-1.19022 0.956759,-1.91191 0.01086,-0.13312 0.01968,-0.26795 0.02795,-0.40111 0.777581,-0.0658 1.56173,-0.0822 2.342596,-0.10191 1.170484,-0.028 2.344252,-0.0345 3.516377,-0.0444 2.354118,-0.0197 4.706579,0.0312 7.060696,0.0411 0.108559,0.003 0.220294,0.003 0.332082,0.003 0.414262,0 0.831821,0.008 1.246096,0.0362 0.06581,0.0592 0.121586,0.12987 0.198921,0.17591 0.294263,0.17261 0.650988,0.21699 0.979772,0.12823 0.457021,-0.12498 0.724985,-0.45865 0.884445,-0.88771 0.0954,-0.25152 0.07898,-0.5425 0.07396,-0.81375 -0.0054,-0.1759 -0.0014,-0.34851 -0.0014,-0.52442 z M 40.101064,102.54541 c 0.491542,0.003 0.986354,0.0136 1.477896,0.028 0.447155,0.0164 0.892654,0.074 1.339809,0.11508 0.494812,0.0476 0.989638,0.0772 1.482822,0.0954 0.42414,0.0136 0.846625,0.0181 1.269123,0.0592 0.787433,0.12172 1.563373,0.30413 2.304791,0.59675 0.313993,0.14138 0.609898,0.31892 0.88937,0.52276 0.233429,0.1907 0.458648,0.38468 0.654285,0.6132 0.0247,0.0345 0.05089,0.0691 0.07558,0.10354 0.05102,0.0707 0.111816,0.12335 0.166027,0.18411 0.01642,0.46359 0.03447,0.92554 0.04763,1.38913 0.01642,0.64113 0.05428,1.28884 0.03447,1.92669 -0.01642,0.60331 -0.05754,1.20665 -0.10191,1.80504 -0.04437,0.58358 -0.04437,1.1639 -0.04763,1.74914 -0.01357,1.18692 -0.01968,2.37384 -0.0095,3.56405 0.01357,1.21486 0.05102,2.42809 0.06744,3.64296 0.0027,0.38303 -0.02795,0.76277 -0.02632,1.14581 0.0027,0.63127 0.01968,1.2609 0.02307,1.89217 0.0027,0.89101 -0.04112,1.7738 0.01357,2.66482 0.04112,0.63785 0.507989,1.17705 1.177066,1.17705 0.312338,0 0.613182,-0.12824 0.833476,-0.34522 0.197265,-0.19728 0.386321,-0.54579 0.345217,-0.83348 -0.04112,-0.32221 -0.02632,-0.651 -0.03447,-0.9765 -0.0095,-0.49811 -0.01968,-0.99622 -0.0068,-1.49597 0.02633,-0.94691 0.06419,-1.89875 0.01357,-2.84565 -0.06405,-1.18363 -0.07396,-2.37713 -0.06079,-3.56076 0.0095,-1.20665 0.05754,-2.41494 0.04112,-3.62159 -0.01642,-1.24775 0.08549,-2.49877 0.169325,-3.74488 0.0806,-1.23788 0.0806,-2.48398 0.06405,-3.72679 0.304129,-0.3255 0.608243,-0.65593 0.943609,-0.94198 0.300845,-0.20549 0.619764,-0.36495 0.951846,-0.52277 0.687166,-0.26632 1.405555,-0.45043 2.133824,-0.56386 0.838402,-0.1068 1.676803,-0.18248 2.525084,-0.21372 0.997861,-0.0345 1.997378,-0.15946 2.99524,-0.21699 1.806681,-0.10517 3.616659,-0.14139 5.416758,0.0493 0.05265,1.11129 0.136446,2.22752 0.113445,3.33718 -0.01968,1.085 -0.0027,2.16341 0.05428,3.24512 0.06419,1.19678 0.08549,2.39358 0.115073,3.58542 0.02795,1.21816 0.06418,2.43795 0.07396,3.65611 0.0068,1.09157 -0.0027,2.18479 0.0095,3.27636 0.0095,0.87457 0.07721,1.74585 0.09865,2.61879 0.01642,0.68552 0.01357,1.37433 -0.01968,2.06148 -0.0213,0.52442 0.01357,1.0587 -0.01642,1.58476 -0.284398,-10e-4 -0.568809,-0.0109 -0.854849,-0.0164 -0.507975,-0.007 -1.017592,-0.0263 -1.525567,-0.0379 -0.504691,-0.0136 -1.004443,-0.0136 -1.50585,-0.0345 -0.600033,-0.0263 -1.196782,-0.0739 -1.796815,-0.0954 -0.821969,-0.0312 -1.64558,-0.0559 -2.470832,-0.0559 -0.374814,0 -0.749628,0.005 -1.126097,0.0164 -0.573735,0.0197 -1.155679,0.0296 -1.72613,0.0986 -0.613182,0.074 -1.218155,0.16934 -1.821472,0.29592 -0.782521,0.15946 -1.553521,0.42084 -2.306446,0.67894 -0.267951,0.0888 -0.539199,0.18576 -0.787433,0.32222 -0.169325,0.0954 -0.322217,0.21041 -0.478393,0.32549 -0.147952,0.10679 -0.27783,0.23836 -0.420843,0.35181 -0.184116,-0.1381 -0.37153,-0.27126 -0.55072,-0.40771 -0.264667,-0.20385 -0.542497,-0.37317 -0.841699,-0.51948 -0.353441,-0.17589 -0.726613,-0.31234 -1.103069,-0.44057 -0.49811,-0.17261 -1.004443,-0.24824 -1.528864,-0.31564 -0.718404,-0.0954 -1.440077,-0.12824 -2.16342,-0.12824 -1.252677,0 -2.510279,0.0987 -3.75803,0.14138 -1.209932,0.0411 -2.418221,0.0707 -3.628153,0.12497 -0.613196,0.028 -1.221452,0.0707 -1.834635,0.0855 -0.220279,0.007 -0.442215,0.01 -0.66415,0.0136 0.09865,-0.17919 0.169325,-0.37153 0.14631,-0.554 -0.05754,-0.44057 -0.04437,-0.89924 -0.05102,-1.33981 -0.0068,-0.3896 -0.0095,-0.78086 -0.02307,-1.17048 -0.03447,-1.09486 -0.0954,-2.18808 -0.146311,-3.28294 -0.05754,-1.21815 -0.07721,-2.44123 -0.111816,-3.65939 -0.03447,-1.20993 -0.108559,-2.41822 -0.152892,-3.62816 -0.06405,-1.76394 -0.03786,-3.52788 0,-5.29347 0.01968,-0.79401 0,-1.59132 0.0095,-2.38698 0.0095,-0.68717 0.01642,-1.37927 0.01479,-2.073 1.870799,-0.0624 3.739955,-0.11345 5.610754,-0.0938 z m 29.276808,27.48657 c -1.040607,0 -2.076288,-0.003 -3.11361,0 -2.303149,0.007 -4.609595,0.01 -6.917669,-0.0136 -0.453723,-0.007 -0.90252,0.003 -1.356242,0.007 -0.128236,0.003 -0.251532,0 -0.379754,0 -0.526063,-0.007 -1.06856,-0.01 -1.569954,0.11181 -0.271248,0.0674 -0.558943,0.23673 -0.746343,0.44058 -0.290979,0.31892 -0.40441,0.67073 -0.440574,1.09157 -0.01642,0.16604 -0.02632,0.33537 -0.02632,0.5014 -0.0014,0.14138 -0.0014,0.28275 -0.0054,0.42249 -0.06079,0.001 -0.119958,0.003 -0.180833,0.005 -0.299202,0.01 -0.596749,0.028 -0.892654,0.0312 -0.695389,0.01 -1.38748,0.007 -2.079585,0.007 -0.746343,0 -1.492687,-0.003 -2.23903,-0.0231 -0.529348,-0.0148 -1.06198,-0.008 -1.591327,-0.0411 -0.01968,-0.0822 -0.0361,-0.1644 -0.05265,-0.24659 -0.03284,-0.33701 -0.05102,-0.67402 -0.09865,-1.01102 -0.05754,-0.44058 -0.353442,-0.84499 -0.724971,-1.07842 -0.33865,-0.217 -0.729911,-0.2433 -1.119516,-0.24002 -0.881147,0.003 -1.757368,-0.028 -2.638515,-0.0345 -0.619763,0 -1.237885,0 -1.857649,0 -0.619764,0.003 -1.234588,0.003 -1.854352,0 -0.991293,-0.001 -1.980931,-0.0136 -2.970583,-0.0136 -0.287695,0 -0.577019,0.001 -0.864714,0.003 -1.614341,0.0164 -3.22704,0.0361 -4.83974,0.0936 -0.0014,-0.0575 -0.0027,-0.11507 -0.0054,-0.17097 -0.01642,-0.58688 -0.01357,-1.17377 -0.01357,-1.76065 0,-1.15732 -0.03447,-2.3163 -0.06744,-3.47363 -0.03447,-1.31844 -0.03121,-2.63194 -0.02632,-3.95037 0.0095,-1.24774 -0.05428,-2.49549 -0.07396,-3.73994 -0.03786,-2.17 -0.01357,-4.34163 -0.01642,-6.51163 -0.0027,-0.90252 -0.01968,-1.80504 -0.04112,-2.70592 -0.01968,-0.81867 -0.0068,-1.63571 0,-2.45274 0.161102,-0.007 0.322204,-0.01 0.483305,-0.0164 0.271249,-0.0136 0.545795,-0.051 0.817043,-0.0312 -0.01805,-0.003 -0.03949,-0.007 -0.06242,-0.009 0.07558,0.005 0.147952,-0.007 0.221935,-0.0109 0.0014,0.13809 0.01086,0.27783 0.01357,0.41756 0.0068,1.18363 -0.03786,2.37055 -0.04437,3.55418 -0.0068,1.21158 0.0095,2.42481 0.05428,3.63638 0.04437,1.22802 0.105167,2.45604 0.146311,3.6857 0.05754,1.69489 0.108559,3.38486 0.17919,5.07975 0.02632,0.651 0.0806,1.30201 0.08223,1.95629 0.0027,0.36002 0.03121,0.71839 0.03786,1.07841 0.0027,0.2877 -0.0068,0.57374 0.0068,0.86143 0.01357,0.27946 0.124979,0.52935 0.282756,0.73648 -0.427424,0.21043 -0.731552,0.62305 -0.731552,1.13925 0,0.67236 0.586883,1.32994 1.292137,1.28884 1.218155,-0.0674 2.437952,-0.17919 3.659391,-0.24165 1.163903,-0.0608 2.329461,-0.0954 3.496647,-0.11508 0.997875,-0.0164 1.990811,-0.10856 2.98703,-0.13312 0.458662,-0.0136 0.915669,-0.0136 1.374331,0 0.503036,0.0136 1.002801,0.0164 1.504194,0.0772 0.07558,0.009 0.152892,0.0214 0.228504,0.0312 0.471811,0.0723 0.912384,0.21207 1.352958,0.38303 0.290979,0.1381 0.567167,0.30907 0.821968,0.50305 -0.08875,-0.0674 -0.175892,-0.13312 -0.264667,-0.20384 0.302487,0.23344 0.634555,0.46851 0.895938,0.74634 0.154534,0.16276 0.3518,0.25481 0.557288,0.31399 0.01357,0.0148 0.01805,0.0361 0.03284,0.0509 0.501407,0.50141 1.336525,0.50141 1.837918,0 0.37647,-0.37646 0.769372,-0.74305 1.177066,-1.08335 0.04926,-0.0328 0.100281,-0.0641 0.152878,-0.092 1.061979,-0.40276 2.151912,-0.7151 3.276367,-0.88937 0.440573,-0.0543 0.884431,-0.0887 1.32993,-0.1167 0.562228,-0.0345 1.122813,-0.0822 1.68504,-0.0887 1.126097,-0.0136 2.252194,-0.0197 3.374993,0.0707 0.545781,0.0444 1.094859,0.0608 1.64064,0.0887 0.478393,0.0231 0.946907,0.0444 1.423657,0.0379 0.33865,-0.007 0.678942,0 1.020876,0.007 0.59675,0.0136 1.190215,0.0231 1.783667,-0.0379 0.332082,-0.0345 0.609898,-0.10856 0.851564,-0.35346 0.22028,-0.21699 0.341934,-0.51618 0.348515,-0.82689 0.13973,-0.14795 0.256444,-0.31564 0.310697,-0.52277 0.101909,-0.3929 0.04763,-0.83841 0.04763,-1.24117 0,-0.33536 0.0095,-0.66745 0.01642,-0.99787 0.01968,-0.73976 -0.0068,-1.47954 -0.04437,-2.22096 -0.05102,-0.97649 -0.134749,-1.94641 -0.156176,-2.92291 -0.02632,-1.16062 0.0068,-2.32288 0,-3.4835 -0.0095,-1.14581 -0.02795,-2.29328 -0.05102,-3.4391 -0.01968,-1.12609 -0.01642,-2.24891 -0.0707,-3.375 -0.04763,-1.01759 -0.07396,-2.03519 -0.07898,-3.05278 0,-0.046 0,-0.0904 0,-0.13644 0.437289,-0.0197 0.876221,-0.0345 1.31351,-0.0476 -0.0027,0.82196 0.0081,1.64392 -0.0014,2.46753 -0.01357,1.25433 -0.03121,2.50701 -0.01357,3.75803 0.01357,1.11953 0.0707,2.23411 0.121722,3.35034 0.04763,1.05541 0.03121,2.11903 0.08549,3.17444 0.05428,1.09158 0.108559,2.18314 0.115073,3.27307 0.0068,0.82361 -0.01357,1.64886 0.0068,2.47576 0.03447,1.47133 0.08223,2.95086 0.04763,4.42218 -0.01357,0.53264 -0.04437,1.06528 -0.05089,1.59791 0,0.0608 -0.0014,0.12498 -0.0014,0.18741 -0.706882,-0.007 -1.413778,-0.005 -2.120674,-0.007 z m -12.30813,-19.68281 c -0.24001,-0.24002 -0.373171,-0.56552 -0.373171,-0.90252 0,-0.33537 0.13312,-0.66416 0.373171,-0.89924 0.254816,-0.2548 0.549079,-0.34193 0.899236,-0.37317 0.654286,-0.0641 1.308571,-0.11182 1.964499,-0.13973 0.535915,-0.0231 1.071844,-0.0312 1.607759,-0.0707 0.360023,-0.0231 0.721688,-0.0379 1.08171,-0.0642 0.263025,-0.018 0.521124,-0.0444 0.784163,-0.0444 0.01479,0 0.02795,0 0.04274,0 0.675645,0.0136 1.24117,0.55565 1.24117,1.24117 0,0.32879 -0.131493,0.6477 -0.360023,0.87786 -0.248234,0.24824 -0.542497,0.33865 -0.881147,0.36331 -0.287695,0.0231 -0.577032,0.0476 -0.867997,0.0509 -0.159474,0.003 -0.315636,0.003 -0.471812,0 -0.216996,-0.003 -0.434005,-0.003 -0.647717,0.003 -0.549065,0.0197 -1.094859,0.0855 -1.643924,0.13645 -0.61648,0.0608 -1.234602,0.12823 -1.851068,0.19398 -0.317277,0.0328 -0.682239,-0.15618 -0.897594,-0.37317 z m 7.915545,2.72893 c 0,0.67071 -0.586884,1.32994 -1.288854,1.28884 -0.830179,-0.0509 -1.675162,-0.0345 -2.506996,-0.01 -1.030741,0.0345 -2.061482,0.11181 -3.092237,0.17262 -0.728269,0.0444 -1.336512,-0.64114 -1.336512,-1.33652 0,-0.75293 0.609899,-1.30199 1.336512,-1.33323 1.030755,-0.051 2.061496,-0.0608 3.092237,-0.051 0.833476,0.007 1.678459,0.0312 2.506996,-0.0231 0.02307,-10e-4 0.04437,-10e-4 0.06744,-10e-4 0.672374,0 1.221452,0.64442 1.221452,1.29377 z m -0.119958,4.10326 c 0,0.69867 -0.593465,1.31514 -1.305287,1.30199 -0.302487,-0.007 -0.603317,-0.0345 -0.905804,-0.051 -0.433992,-0.0263 -0.874579,-0.0136 -1.308571,-0.009 -0.918952,0.009 -1.834621,0.0674 -2.753587,0.10855 -0.711822,0.0312 -1.308571,-0.61812 -1.308571,-1.30857 0,-0.72825 0.596749,-1.28555 1.308571,-1.30857 0.918966,-0.0263 1.834635,0.0197 2.753587,0.0231 0.433992,0.003 0.874579,0.0164 1.308571,-0.01 0.302487,-0.0164 0.603317,-0.0444 0.905804,-0.0509 0.0068,0 0.01479,0 0.0213,0 0.70197,0.001 1.283915,0.61154 1.283915,1.30527 z m -27.869598,-8.30352 c 0,-0.71839 0.59675,-1.30857 1.308572,-1.31186 0.08712,0 0.172608,0 0.259741,0 1.306929,0 2.6155,0.0427 3.919131,0.051 0.392903,0.003 0.784163,-0.007 1.173768,-0.0345 0.440574,-0.0312 0.851565,0.064 1.282273,0.13644 0.30577,0.0543 0.600033,0.31892 0.749627,0.57374 0.169326,0.29098 0.213713,0.64113 0.124979,0.96334 -0.136445,0.49812 -0.660853,0.97322 -1.206648,0.91896 -0.332068,-0.0312 -0.667434,-0.0772 -0.997861,-0.0887 -0.392902,-0.0136 -0.787447,-0.007 -1.180349,0 -1.374317,0.0197 -2.750304,0.0707 -4.124621,0.0987 -0.711822,0.0164 -1.308571,-0.60497 -1.308571,-1.30693 z m 9.039986,4.32519 c 0,0.65429 -0.586884,1.3431 -1.282273,1.28228 -0.404409,-0.0345 -0.810461,-0.007 -1.211573,-0.0411 -0.478379,-0.0379 -0.960056,-0.0411 -1.438449,-0.0476 -1.257602,-0.0231 -2.523428,0.092 -3.777747,0.18576 -0.708538,0.0543 -1.305287,-0.63456 -1.305287,-1.30528 0,-0.74306 0.596749,-1.26418 1.305287,-1.30528 1.260887,-0.074 2.516861,-0.0642 3.777747,-0.0608 0.494826,0 0.989652,-0.0197 1.482836,-0.0379 0.05754,-10e-4 0.113444,-0.003 0.170967,-0.003 0.332082,0 0.664151,0.0279 0.996219,0.0509 0.695389,0.0411 1.282273,0.54908 1.282273,1.28227 z m -1.283915,3.27472 c -0.210414,-0.0575 -0.422484,-0.0624 -0.632913,-0.0181 -0.71018,0.0624 -1.426927,0.008 -2.135465,-0.0197 -1.043904,-0.0379 -2.082869,-0.0707 -3.123475,-0.0855 -0.0081,0 -0.01805,0 -0.02633,0 -0.746357,0 -1.361182,0.651 -1.361182,1.38748 0,0.75621 0.631271,1.38748 1.38748,1.38748 1.040607,0.003 2.079572,-0.0164 3.123476,-0.0476 0.807164,-0.0231 1.60776,-0.0642 2.414937,0.01 0.335352,0.0312 0.711822,-0.15946 0.941967,-0.38962 0.248234,-0.24823 0.392902,-0.59017 0.392902,-0.94197 0,-0.3518 -0.143026,-0.69209 -0.392902,-0.94198 -0.167669,-0.16438 -0.361665,-0.27945 -0.588526,-0.34029 z m -0.708538,0 c -0.02632,0.003 -0.05102,0.007 -0.07721,0.009 0.02795,-0.003 0.05591,-0.008 0.08386,-0.0109 -0.0014,0.001 -0.0054,0.001 -0.0068,0.001 z"
       id="path1"
       style="fill:url(#linearGradient6);fill-opacity:1;stroke-width:1.64394"
       inkscape:export-filename="path1.svg"
       inkscape:export-xdpi="96"
       inkscape:export-ydpi="96" /><path
       style="font-variation-settings:'wght' 600;fill:url(#linearGradient4);fill-opacity:1;stroke-width:0.41427"
       d="m 189.6482,479.67271 c -5.20486,-3.52111 -10.48304,-4.73448 -20.62605,-4.74157 -6.63647,-0.005 -25.53602,0.62335 -32.93446,1.09434 l -3.93557,0.25054 -0.11433,-6.76823 c -0.0629,-3.72252 -0.2888,-11.14913 -0.50203,-16.50357 -1.1917,-29.92408 -1.35302,-37.75947 -1.05212,-51.10038 l 0.31629,-14.02322 16.83263,0.21623 c 9.25794,0.11892 19.16289,0.4046 22.011,0.63485 8.04238,0.65015 13.38704,2.65874 16.88168,6.34434 l 1.34655,1.42014 0.0296,7.43696 c 0.0163,4.09032 0.0227,21.11415 0.0143,37.83072 -0.017,33.59464 -0.12913,32.16268 2.62113,33.47419 1.81499,0.8655 3.90469,0.46816 5.32289,-1.01213 l 1.09081,-1.13856 0.20949,-30.44436 c 0.11522,-16.7444 0.32622,-34.21109 0.46888,-38.81486 l 0.2594,-8.37048 1.7496,-1.61272 c 4.75899,-4.38669 8.95394,-5.49911 25.18703,-6.67915 11.41876,-0.83007 24.61662,-1.11551 27.73481,-0.59985 l 1.51212,0.25006 0.23131,6.27013 c 0.31198,8.4568 1.03177,42.44124 1.3559,64.01777 l 0.26385,17.56346 -10.51592,-0.37125 c -17.68667,-0.6244 -30.13603,-0.48586 -35.16498,0.39134 -6.00897,1.04815 -13.9472,3.67758 -16.20624,5.3681 l -1.8145,1.35786 z m -19.05037,-30.05968 c 1.16335,-0.60744 2.35726,-2.88129 2.35223,-4.47994 -0.006,-1.80515 -0.70231,-3.19966 -2.12649,-4.25678 -1.02004,-0.75713 -1.98628,-0.82929 -13.53143,-1.01053 l -12.43295,-0.19518 -1.53919,1.41056 c -1.29386,1.18574 -1.56738,1.73662 -1.71606,3.45623 -0.13578,1.57042 0.0229,2.36387 0.6829,3.41545 1.58093,2.51882 2.16204,2.60525 15.55002,2.31277 6.60761,-0.14436 12.35005,-0.43802 12.76097,-0.65258 z m 72.67134,-2.66781 c 0.63256,-0.46833 1.41661,-1.60545 1.74232,-2.52694 0.51347,-1.45268 0.51343,-1.8824 -2.8e-4,-3.23214 -0.32587,-0.85618 -1.10849,-1.94195 -1.73916,-2.41282 -1.08809,-0.81237 -1.62781,-0.85222 -10.56361,-0.77987 -5.1793,0.0419 -10.32106,0.0809 -11.42613,0.0867 -1.72565,0.009 -2.208,0.20919 -3.41773,1.41892 -1.24068,1.24069 -1.40852,1.66521 -1.40852,3.56272 0,1.89606 0.16821,2.32241 1.40365,3.55785 l 1.40364,1.40364 11.42785,-0.11325 c 10.78507,-0.10688 11.49254,-0.16114 12.57797,-0.96476 z m -71.25218,-14.91213 c 2.30068,-1.44173 2.80234,-5.42476 0.93377,-7.41377 -1.73463,-1.84642 -2.47238,-1.92766 -16.20798,-1.78479 -11.47613,0.11936 -13.14729,0.22048 -14.33046,0.8671 -3.17159,1.73333 -3.44887,6.66012 -0.49142,8.73159 1.22676,0.85926 28.66859,0.49441 30.09609,-0.40013 z m 61.56265,0.39725 9.45959,-0.27324 1.17465,-1.17465 c 2.23222,-2.23222 2.1125,-5.29764 -0.28926,-7.40641 l -1.47214,-1.29256 -12.0661,0.13595 c -10.58938,0.11931 -12.23002,0.22553 -13.40546,0.86793 -3.42923,1.87413 -3.42198,6.87855 0.0131,9.04975 1.12377,0.7103 1.76903,0.80227 4.22616,0.60238 1.59494,-0.12976 7.1567,-0.35888 12.35947,-0.50915 z m -9.65585,-14.25605 c 1.93074,-0.24504 6.67959,-0.58359 10.55302,-0.75234 4.73315,-0.2062 7.33242,-0.49045 7.92644,-0.8668 2.17539,-1.37827 2.84561,-4.57354 1.44208,-6.87515 -1.41206,-2.31563 -2.07103,-2.39197 -14.45526,-1.67471 -6.13502,0.35532 -11.62368,0.82439 -12.19702,1.04237 -0.57335,0.21799 -1.44383,0.90661 -1.93439,1.53026 -1.82166,2.31586 -1.64189,4.45691 0.55899,6.6578 1.57923,1.57923 2.35263,1.66878 8.10614,0.93857 z m -51.73362,-3.2161 c 2.30443,-2.5791 1.157,-7.07766 -2.00988,-7.87986 -2.08556,-0.52829 -25.19658,-0.87404 -26.90437,-0.4025 -0.73436,0.20277 -1.81323,0.93678 -2.3975,1.63114 -2.00724,2.38547 -1.12717,6.73885 1.5841,7.83603 0.48119,0.19473 7.10085,0.30541 14.71036,0.24596 l 13.83547,-0.10809 z"
       id="path2"
       transform="scale(0.26458333)" /><path
       style="font-variation-settings:'wght' 600;fill:#a1bdbe;fill-opacity:1;stroke-width:0.41427"
       d="m 180.65293,498.18781 c -0.33024,-3.35138 -1.40146,-5.26026 -3.56077,-6.34513 -1.33208,-0.66926 -3.68068,-0.72438 -30.89147,-0.72498 l -29.44979,-6.4e-4 -0.27495,-13.36021 c -0.15122,-7.34811 -0.39846,-28.32053 -0.54941,-46.60537 l -0.27447,-33.24516 h 2.49864 2.49865 l 0.23454,17.71004 c 0.27347,20.64999 1.75513,59.48889 2.30705,60.47512 0.28351,0.5066 0.0759,0.98257 -0.81858,1.87709 -2.17914,2.17913 -1.41567,6.56366 1.37254,7.88243 1.21796,0.57607 2.27736,0.58614 9.85716,0.0936 15.96567,-1.0374 37.18387,-1.61875 40.84788,-1.11919 4.4198,0.60261 7.56122,1.82067 10.16053,3.93967 4.6165,3.76343 6.95672,4.83326 9.29108,4.24737 0.58538,-0.14692 2.26888,-1.38772 3.74112,-2.75734 3.04056,-2.82863 4.48935,-3.54056 10.32085,-5.07162 6.47262,-1.69939 12.73866,-2.10319 26.09901,-1.68192 6.37976,0.20116 15.05663,0.36575 19.28195,0.36575 9.14052,0 9.28289,-0.054 11.18186,-4.24211 l 1.25719,-2.77267 -0.15965,-9.12785 c -0.0878,-5.02031 -0.37163,-22.34915 -0.63072,-38.50852 -0.25909,-16.15937 -0.57926,-29.72154 -0.71148,-30.13814 -0.21324,-0.67186 0.0202,-0.75746 2.06599,-0.75746 h 2.3064 l 0.0125,11.28885 c 0.007,6.20887 0.18707,15.29692 0.40043,20.19566 0.63447,14.56746 1.36225,54.87626 1.05081,58.19984 l -0.28865,3.08036 -28.86148,0.11945 c -27.14868,0.11236 -28.95328,0.16509 -30.40845,0.88852 -2.12871,1.05828 -3.18949,2.95104 -3.49651,6.23883 l -0.2547,2.72744 H 193.87198 180.9359 Z"
       id="path3"
       transform="scale(0.26458333)" /></g><style
     type="text/css"
     id="style1">&#10;	.sketchy_een{fill:#111918;}&#10;</style></svg>
